# 3ds Max Wavefront OBJ Exporter v0.97b - (c)2007 guruware
# File Created: 04.11.2019 01:30:36

mtllib shelves.mtl

#
# object Box003
#

v  -34.6897 0.0000 -4.6391
v  -34.6897 0.0000 -5.4573
v  22.5456 0.0000 -5.4573
v  22.5456 0.0000 -4.6391
v  -34.6897 38.4379 -4.8391
v  22.5456 38.4379 -4.8391
v  22.5456 38.4379 -5.2573
v  -34.6897 38.4379 -5.2573
v  22.5456 0.4000 6.3609
v  22.5456 2.5945 6.3609
v  -34.6897 2.5945 6.3609
v  -34.6897 0.4000 6.3609
v  22.5456 2.5945 -5.4573
v  22.5456 2.5945 -4.6391
v  -34.6897 2.5945 -5.4573
v  -34.6897 2.5945 -4.6391
v  22.5456 38.2379 -4.6391
v  -34.6897 38.2379 -4.6391
v  22.5456 38.2379 -5.4573
v  -34.6897 38.2379 -5.4573
v  22.5456 0.0000 5.9609
v  -34.6897 0.0000 5.9609
# 22 vertices

vn 0.0000 -1.0000 -0.0000
vn 0.0000 1.0000 -0.0000
vn 0.0000 0.0000 1.0000
vn 1.0000 0.0000 -0.0000
vn 0.0000 0.0000 -1.0000
vn -1.0000 0.0000 -0.0000
vn 0.0000 -0.7071 0.7071
vn 0.0000 0.7071 0.7071
vn 0.0000 0.7071 -0.7071
# 9 vertex normals

vt 0.0137 0.8492 0.0000
vt 0.6886 0.8492 0.0000
vt 0.6886 0.9707 0.0000
vt 0.0137 0.9707 0.0000
vt 0.1787 0.9707 0.0000
vt 0.1787 0.8492 0.0000
vt 0.5236 0.8492 0.0000
vt 0.5236 0.9707 0.0000
vt 0.0207 0.8492 0.0000
vt 0.0593 0.8492 0.0000
vt 0.0593 0.9707 0.0000
vt 0.0207 0.9707 0.0000
vt 0.9723 0.7366 0.0000
vt 0.0402 0.7366 0.0000
vt 0.0402 0.1487 0.0000
vt 0.9723 0.1487 0.0000
vt 0.6851 0.8492 0.0000
vt 0.6886 0.8789 0.0000
vt 0.6886 0.9410 0.0000
vt 0.6851 0.9707 0.0000
vt 0.3465 0.8355 0.0000
vt 0.3465 0.9570 0.0000
vt 0.6381 0.9707 0.0000
vt 0.9723 0.9570 0.0000
vt 0.9723 0.8355 0.0000
vt 0.6381 0.8492 0.0000
# 26 texture coords

o Box003
g Box003
usemtl Material__10
s 1
f 1/1/1 2/2/1 3/3/1 
f 3/3/1 4/4/1 1/1/1 
f 5/5/2 6/6/2 7/7/2 
f 7/7/2 8/8/2 5/5/2 
f 9/9/3 10/10/3 11/11/3 
f 11/11/3 12/12/3 9/9/3 
s 2
f 3/1/4 13/10/4 14/11/4 
f 14/11/4 4/4/4 3/1/4 
s 4
f 2/1/5 15/10/5 13/11/5 
f 13/11/5 3/4/5 2/1/5 
s 2
f 1/1/6 16/10/6 15/11/6 
f 15/11/6 2/4/6 1/1/6 
s 1
f 17/13/3 18/14/3 16/15/3 
f 16/15/3 14/16/3 17/13/3 
s 2
f 13/10/4 19/17/4 7/18/4 
f 7/18/4 6/19/4 17/20/4 
f 7/18/4 17/20/4 14/11/4 
f 13/10/4 7/18/4 14/11/4 
s 4
f 20/17/5 19/20/5 13/11/5 
f 13/11/5 15/10/5 20/17/5 
s 2
f 16/10/6 18/17/6 5/18/6 
f 5/18/6 8/19/6 20/20/6 
f 5/18/6 20/20/6 15/11/6 
f 16/10/6 5/18/6 15/11/6 
s 1
f 1/4/1 4/1/1 21/1/1 
f 21/1/1 22/4/1 1/4/1 
s 2
f 4/1/4 14/21/4 10/10/4 
f 10/10/4 9/9/4 21/1/4 
f 4/1/4 10/10/4 21/1/4 
s 4
f 14/21/2 16/22/2 11/11/2 
f 11/11/2 10/10/2 14/21/2 
s 2
f 1/4/6 22/4/6 12/12/6 
f 16/22/6 1/4/6 12/12/6 
f 16/22/6 12/12/6 11/11/6 
s 4
f 12/12/7 22/4/7 21/1/7 
f 21/1/7 9/9/7 12/12/7 
f 5/23/8 18/24/8 17/25/8 
f 17/25/8 6/26/8 5/23/8 
s 8
f 7/23/9 19/20/9 20/17/9 
f 20/17/9 8/26/9 7/23/9 
# 40 faces

#
# object Box004
#

v  -34.4680 11.7268 -3.0217
v  -34.0000 11.7268 -3.0217
v  -34.0000 11.7268 7.2063
v  -34.4680 11.7268 7.2063
v  -34.0000 12.4480 6.9626
v  -34.0000 12.4480 -3.0555
v  -34.4680 12.4480 -3.0555
v  -34.4680 12.4480 6.9626
v  22.3402 11.7268 -3.0217
v  22.3402 12.4480 -3.0555
v  22.3402 12.4480 6.9626
v  22.3402 11.7268 7.2063
v  21.9400 11.7268 -4.6711
v  21.9400 12.4480 -4.6711
v  22.3402 12.4480 -4.6711
v  22.3402 11.7268 -4.6711
v  -34.4680 11.7268 -4.6711
v  -34.4680 12.4480 -4.6711
v  -34.4680 10.7268 -4.6711
v  -34.0000 10.7268 -4.6711
v  21.9400 12.4480 -3.0555
v  21.9400 11.7268 -3.0217
v  21.9400 11.7268 7.2063
v  21.9400 12.4480 6.9626
v  -34.0000 12.4480 -4.6711
v  -34.0000 11.7268 -4.6711
v  22.3402 10.7268 -4.6711
v  21.9400 10.7268 -4.6711
# 28 vertices

vn 0.0000 -0.9631 0.2691
vn 0.0000 -0.9911 0.1333
vn 0.0000 -1.0000 -0.0000
vn 0.0000 1.0000 -0.0000
vn 0.0000 0.3201 0.9474
vn 1.0000 0.0000 -0.0000
vn 0.0000 0.0000 -1.0000
vn -1.0000 0.0000 -0.0000
vn 0.0000 -0.8551 0.5184
vn -0.0000 0.3201 0.9474
# 10 vertex normals

vt 0.8762 0.0241 0.0000
vt 0.9594 0.0250 0.0000
vt 0.9594 0.0161 0.0000
vt 0.8762 0.0091 0.0000
vt 0.0862 0.0080 0.0000
vt 0.0862 0.0239 0.0000
vt 0.0765 0.0239 0.0000
vt 0.0765 0.0080 0.0000
vt 0.0862 0.0265 0.0000
vt 0.0765 0.0265 0.0000
vt 0.8452 0.0080 0.0000
vt 0.8452 0.0265 0.0000
vt 0.0854 0.0080 0.0000
vt 0.0854 0.0265 0.0000
vt 0.2004 0.0080 0.0000
vt 0.2004 0.0265 0.0000
vt 0.9661 0.0265 0.0000
vt 0.9563 0.0265 0.0000
vt 0.9602 0.0265 0.0000
vt 0.9493 0.0250 0.0000
vt 0.9691 0.0080 0.0000
vt 0.9691 0.0265 0.0000
vt 0.0854 0.0239 0.0000
vt 0.9493 0.0161 0.0000
vt 0.9493 0.0265 0.0000
vt 0.8762 0.0265 0.0000
vt 0.9594 0.0265 0.0000
# 27 texture coords

o Box004
g Box004
usemtl Material__13
s 2
f 23/27/10 24/28/11 25/29/12 
f 25/29/12 26/30/12 23/27/10 
s 4
f 27/31/13 28/32/13 29/33/13 
f 29/33/13 30/34/13 27/31/13 
s 8
f 25/31/14 27/35/14 30/36/14 
f 30/36/14 26/34/14 25/31/14 
s 16
f 31/37/15 32/38/15 33/36/15 
f 33/36/15 34/34/15 31/37/15 
s 32
f 35/39/16 36/40/16 37/36/16 
f 37/36/16 38/34/16 35/39/16 
s 64
f 39/34/17 23/41/17 29/42/17 
f 29/42/17 40/36/17 39/34/17 
s 2
f 41/43/18 42/44/18 24/28/11 
f 24/28/11 23/27/10 41/43/18 
s 4
f 37/43/13 36/45/13 43/46/13 
f 43/46/13 32/27/13 37/43/13 
s 16
f 38/47/15 37/48/15 32/38/15 
f 32/38/15 31/37/15 38/47/15 
s 64
f 23/41/17 26/47/17 30/48/17 
f 30/48/17 29/42/17 23/41/17 
s 2
f 44/49/11 45/39/12 25/29/12 
f 25/29/12 24/28/11 44/49/11 
s 4
f 46/50/13 43/46/13 28/32/13 
f 28/32/13 27/31/13 46/50/13 
s 8
f 45/50/19 46/51/19 27/35/14 
f 27/35/14 25/31/14 45/50/19 
s 32
f 39/30/16 40/52/16 47/53/16 
f 47/53/16 48/29/16 39/30/16 
s 2
f 35/40/12 44/49/11 24/28/11 
f 24/28/11 48/53/12 35/40/12 
s 4
f 40/36/13 29/33/13 28/32/13 
f 28/32/13 47/35/13 40/36/13 
s 32
f 48/29/16 47/53/16 36/40/16 
f 36/40/16 35/39/16 48/29/16 
s 4
f 47/35/13 28/32/13 43/46/13 
f 43/46/13 36/45/13 47/35/13 
s 2
f 31/33/10 34/34/12 45/39/12 
f 45/39/12 44/49/11 31/33/10 
s 4
f 33/30/13 32/27/13 43/46/13 
f 43/46/13 46/50/13 33/30/13 
s 8
f 34/30/19 33/52/14 46/51/19 
f 46/51/19 45/50/19 34/30/19 
s 2
f 49/36/18 31/33/10 44/49/11 
f 44/49/11 50/40/18 49/36/18 
s off
f 39/43/16 48/53/16 42/44/16 
f 42/44/16 41/43/16 39/43/16 
f 48/53/15 24/28/15 42/44/15 
f 23/27/17 39/43/17 41/43/17 
f 38/36/15 31/33/15 49/36/15 
f 44/49/17 35/40/17 50/40/17 
f 35/40/16 38/36/16 49/36/16 
f 49/36/16 50/40/16 35/40/16 
# 52 faces

#
# object Box005
#

v  -34.4680 2.6596 -3.0217
v  -34.0000 2.6596 -3.0217
v  -34.0000 2.6596 7.2063
v  -34.4680 2.6596 7.2063
v  -34.0000 3.3808 6.9626
v  -34.0000 3.3808 -3.0555
v  -34.4680 3.3808 -3.0555
v  -34.4680 3.3808 6.9626
v  22.3402 2.6596 -3.0217
v  22.3402 3.3808 -3.0555
v  22.3402 3.3808 6.9626
v  22.3402 2.6596 7.2063
v  21.9400 2.6596 -4.6711
v  21.9400 3.3808 -4.6711
v  22.3402 3.3808 -4.6711
v  22.3402 2.6596 -4.6711
v  -34.4680 2.6596 -4.6711
v  -34.4680 3.3808 -4.6711
v  -34.4680 1.6596 -4.6711
v  -34.0000 1.6596 -4.6711
v  21.9400 3.3808 -3.0555
v  21.9400 2.6596 -3.0217
v  21.9400 2.6596 7.2063
v  21.9400 3.3808 6.9626
v  -34.0000 3.3808 -4.6711
v  -34.0000 2.6596 -4.6711
v  22.3402 1.6596 -4.6711
v  21.9400 1.6596 -4.6711
# 28 vertices

vn 0.0000 -0.9631 0.2691
vn 0.0000 -0.9911 0.1333
vn 0.0000 -1.0000 -0.0000
vn 0.0000 1.0000 -0.0000
vn 0.0000 0.3201 0.9474
vn 1.0000 0.0000 -0.0000
vn 0.0000 0.0000 -1.0000
vn -1.0000 0.0000 -0.0000
vn 0.0000 -0.8551 0.5184
vn -0.0000 0.3201 0.9474
# 10 vertex normals

vt 0.8762 0.0241 0.0000
vt 0.9594 0.0250 0.0000
vt 0.9594 0.0161 0.0000
vt 0.8762 0.0091 0.0000
vt 0.0862 0.0080 0.0000
vt 0.0862 0.0239 0.0000
vt 0.0765 0.0239 0.0000
vt 0.0765 0.0080 0.0000
vt 0.0862 0.0265 0.0000
vt 0.0765 0.0265 0.0000
vt 0.8452 0.0080 0.0000
vt 0.8452 0.0265 0.0000
vt 0.0854 0.0080 0.0000
vt 0.0854 0.0265 0.0000
vt 0.2004 0.0080 0.0000
vt 0.2004 0.0265 0.0000
vt 0.9661 0.0265 0.0000
vt 0.9563 0.0265 0.0000
vt 0.9602 0.0265 0.0000
vt 0.9493 0.0250 0.0000
vt 0.9691 0.0080 0.0000
vt 0.9691 0.0265 0.0000
vt 0.0854 0.0239 0.0000
vt 0.9493 0.0161 0.0000
vt 0.9493 0.0265 0.0000
vt 0.8762 0.0265 0.0000
vt 0.9594 0.0265 0.0000
# 27 texture coords

o Box005
g Box005
usemtl Material__14
s 2
f 51/54/20 52/55/21 53/56/22 
f 53/56/22 54/57/22 51/54/20 
s 4
f 55/58/23 56/59/23 57/60/23 
f 57/60/23 58/61/23 55/58/23 
s 8
f 53/58/24 55/62/24 58/63/24 
f 58/63/24 54/61/24 53/58/24 
s 16
f 59/64/25 60/65/25 61/63/25 
f 61/63/25 62/61/25 59/64/25 
s 32
f 63/66/26 64/67/26 65/63/26 
f 65/63/26 66/61/26 63/66/26 
s 64
f 67/61/27 51/68/27 57/69/27 
f 57/69/27 68/63/27 67/61/27 
s 2
f 69/70/28 70/71/28 52/55/21 
f 52/55/21 51/54/20 69/70/28 
s 4
f 65/70/23 64/72/23 71/73/23 
f 71/73/23 60/54/23 65/70/23 
s 16
f 66/74/25 65/75/25 60/65/25 
f 60/65/25 59/64/25 66/74/25 
s 64
f 51/68/27 54/74/27 58/75/27 
f 58/75/27 57/69/27 51/68/27 
s 2
f 72/76/21 73/66/22 53/56/22 
f 53/56/22 52/55/21 72/76/21 
s 4
f 74/77/23 71/73/23 56/59/23 
f 56/59/23 55/58/23 74/77/23 
s 8
f 73/77/29 74/78/29 55/62/24 
f 55/62/24 53/58/24 73/77/29 
s 32
f 67/57/26 68/79/26 75/80/26 
f 75/80/26 76/56/26 67/57/26 
s 2
f 63/67/22 72/76/21 52/55/21 
f 52/55/21 76/80/22 63/67/22 
s 4
f 68/63/23 57/60/23 56/59/23 
f 56/59/23 75/62/23 68/63/23 
s 32
f 76/56/26 75/80/26 64/67/26 
f 64/67/26 63/66/26 76/56/26 
s 4
f 75/62/23 56/59/23 71/73/23 
f 71/73/23 64/72/23 75/62/23 
s 2
f 59/60/20 62/61/22 73/66/22 
f 73/66/22 72/76/21 59/60/20 
s 4
f 61/57/23 60/54/23 71/73/23 
f 71/73/23 74/77/23 61/57/23 
s 8
f 62/57/29 61/79/24 74/78/29 
f 74/78/29 73/77/29 62/57/29 
s 2
f 77/63/28 59/60/20 72/76/21 
f 72/76/21 78/67/28 77/63/28 
s off
f 67/70/26 76/80/26 70/71/26 
f 70/71/26 69/70/26 67/70/26 
f 76/80/25 52/55/25 70/71/25 
f 51/54/27 67/70/27 69/70/27 
f 66/63/25 59/60/25 77/63/25 
f 72/76/27 63/67/27 78/67/27 
f 63/67/26 66/63/26 77/63/26 
f 77/63/26 78/67/26 63/67/26 
# 52 faces

#
# object Box006
#

v  -34.4680 21.5237 -3.0217
v  -34.0000 21.5237 -3.0217
v  -34.0000 21.5237 7.2063
v  -34.4680 21.5237 7.2063
v  -34.0000 22.2449 6.9626
v  -34.0000 22.2449 -3.0555
v  -34.4680 22.2449 -3.0555
v  -34.4680 22.2449 6.9626
v  22.3402 21.5237 -3.0217
v  22.3402 22.2449 -3.0555
v  22.3402 22.2449 6.9626
v  22.3402 21.5237 7.2063
v  21.9400 21.5237 -4.6711
v  21.9400 22.2449 -4.6711
v  22.3402 22.2449 -4.6711
v  22.3402 21.5237 -4.6711
v  -34.4680 21.5237 -4.6711
v  -34.4680 22.2449 -4.6711
v  -34.4680 20.5237 -4.6711
v  -34.0000 20.5237 -4.6711
v  21.9400 22.2449 -3.0555
v  21.9400 21.5237 -3.0217
v  21.9400 21.5237 7.2063
v  21.9400 22.2449 6.9626
v  -34.0000 22.2449 -4.6711
v  -34.0000 21.5237 -4.6711
v  22.3402 20.5237 -4.6711
v  21.9400 20.5237 -4.6711
# 28 vertices

vn 0.0000 -0.9631 0.2691
vn 0.0000 -0.9911 0.1333
vn 0.0000 -1.0000 -0.0000
vn 0.0000 1.0000 -0.0000
vn 0.0000 0.3201 0.9474
vn 1.0000 0.0000 -0.0000
vn 0.0000 0.0000 -1.0000
vn -1.0000 0.0000 -0.0000
vn 0.0000 -0.8551 0.5184
vn -0.0000 0.3201 0.9474
# 10 vertex normals

vt 0.8762 0.0241 0.0000
vt 0.9594 0.0250 0.0000
vt 0.9594 0.0161 0.0000
vt 0.8762 0.0091 0.0000
vt 0.0862 0.0080 0.0000
vt 0.0862 0.0239 0.0000
vt 0.0765 0.0239 0.0000
vt 0.0765 0.0080 0.0000
vt 0.0862 0.0265 0.0000
vt 0.0765 0.0265 0.0000
vt 0.8452 0.0080 0.0000
vt 0.8452 0.0265 0.0000
vt 0.0854 0.0080 0.0000
vt 0.0854 0.0265 0.0000
vt 0.2004 0.0080 0.0000
vt 0.2004 0.0265 0.0000
vt 0.9661 0.0265 0.0000
vt 0.9563 0.0265 0.0000
vt 0.9602 0.0265 0.0000
vt 0.9493 0.0250 0.0000
vt 0.9691 0.0080 0.0000
vt 0.9691 0.0265 0.0000
vt 0.0854 0.0239 0.0000
vt 0.9493 0.0161 0.0000
vt 0.9493 0.0265 0.0000
vt 0.8762 0.0265 0.0000
vt 0.9594 0.0265 0.0000
# 27 texture coords

o Box006
g Box006
usemtl Material__11
s 2
f 79/81/30 80/82/31 81/83/32 
f 81/83/32 82/84/32 79/81/30 
s 4
f 83/85/33 84/86/33 85/87/33 
f 85/87/33 86/88/33 83/85/33 
s 8
f 81/85/34 83/89/34 86/90/34 
f 86/90/34 82/88/34 81/85/34 
s 16
f 87/91/35 88/92/35 89/90/35 
f 89/90/35 90/88/35 87/91/35 
s 32
f 91/93/36 92/94/36 93/90/36 
f 93/90/36 94/88/36 91/93/36 
s 64
f 95/88/37 79/95/37 85/96/37 
f 85/96/37 96/90/37 95/88/37 
s 2
f 97/97/38 98/98/38 80/82/31 
f 80/82/31 79/81/30 97/97/38 
s 4
f 93/97/33 92/99/33 99/100/33 
f 99/100/33 88/81/33 93/97/33 
s 16
f 94/101/35 93/102/35 88/92/35 
f 88/92/35 87/91/35 94/101/35 
s 64
f 79/95/37 82/101/37 86/102/37 
f 86/102/37 85/96/37 79/95/37 
s 2
f 100/103/31 101/93/32 81/83/32 
f 81/83/32 80/82/31 100/103/31 
s 4
f 102/104/33 99/100/33 84/86/33 
f 84/86/33 83/85/33 102/104/33 
s 8
f 101/104/39 102/105/39 83/89/34 
f 83/89/34 81/85/34 101/104/39 
s 32
f 95/84/36 96/106/36 103/107/36 
f 103/107/36 104/83/36 95/84/36 
s 2
f 91/94/32 100/103/31 80/82/31 
f 80/82/31 104/107/32 91/94/32 
s 4
f 96/90/33 85/87/33 84/86/33 
f 84/86/33 103/89/33 96/90/33 
s 32
f 104/83/36 103/107/36 92/94/36 
f 92/94/36 91/93/36 104/83/36 
s 4
f 103/89/33 84/86/33 99/100/33 
f 99/100/33 92/99/33 103/89/33 
s 2
f 87/87/30 90/88/32 101/93/32 
f 101/93/32 100/103/31 87/87/30 
s 4
f 89/84/33 88/81/33 99/100/33 
f 99/100/33 102/104/33 89/84/33 
s 8
f 90/84/39 89/106/34 102/105/39 
f 102/105/39 101/104/39 90/84/39 
s 2
f 105/90/38 87/87/30 100/103/31 
f 100/103/31 106/94/38 105/90/38 
s off
f 95/97/36 104/107/36 98/98/36 
f 98/98/36 97/97/36 95/97/36 
f 104/107/35 80/82/35 98/98/35 
f 79/81/37 95/97/37 97/97/37 
f 94/90/35 87/87/35 105/90/35 
f 100/103/37 91/94/37 106/94/37 
f 91/94/36 94/90/36 105/90/36 
f 105/90/36 106/94/36 91/94/36 
# 52 faces

#
# object Box007
#

v  -34.4680 31.4149 -3.0217
v  -34.0000 31.4149 -3.0217
v  -34.0000 31.4149 7.2063
v  -34.4680 31.4149 7.2063
v  -34.0000 32.1361 6.9626
v  -34.0000 32.1361 -3.0555
v  -34.4680 32.1361 -3.0555
v  -34.4680 32.1361 6.9626
v  22.3402 31.4149 -3.0217
v  22.3402 32.1361 -3.0555
v  22.3402 32.1361 6.9626
v  22.3402 31.4149 7.2063
v  21.9400 31.4149 -4.6711
v  21.9400 32.1361 -4.6711
v  22.3402 32.1361 -4.6711
v  22.3402 31.4149 -4.6711
v  -34.4680 31.4149 -4.6711
v  -34.4680 32.1361 -4.6711
v  -34.4680 30.4149 -4.6711
v  -34.0000 30.4149 -4.6711
v  21.9400 32.1361 -3.0555
v  21.9400 31.4149 -3.0217
v  21.9400 31.4149 7.2063
v  21.9400 32.1361 6.9626
v  -34.0000 32.1361 -4.6711
v  -34.0000 31.4149 -4.6711
v  22.3402 30.4149 -4.6711
v  21.9400 30.4149 -4.6711
# 28 vertices

vn 0.0000 -0.9631 0.2691
vn 0.0000 -0.9911 0.1333
vn 0.0000 -1.0000 -0.0000
vn 0.0000 1.0000 -0.0000
vn 0.0000 0.3201 0.9474
vn 1.0000 0.0000 -0.0000
vn 0.0000 0.0000 -1.0000
vn -1.0000 0.0000 -0.0000
vn 0.0000 -0.8551 0.5184
vn -0.0000 0.3201 0.9474
# 10 vertex normals

vt 0.8762 0.0241 0.0000
vt 0.9594 0.0250 0.0000
vt 0.9594 0.0161 0.0000
vt 0.8762 0.0091 0.0000
vt 0.0862 0.0080 0.0000
vt 0.0862 0.0239 0.0000
vt 0.0765 0.0239 0.0000
vt 0.0765 0.0080 0.0000
vt 0.0862 0.0265 0.0000
vt 0.0765 0.0265 0.0000
vt 0.8452 0.0080 0.0000
vt 0.8452 0.0265 0.0000
vt 0.0854 0.0080 0.0000
vt 0.0854 0.0265 0.0000
vt 0.2004 0.0080 0.0000
vt 0.2004 0.0265 0.0000
vt 0.9661 0.0265 0.0000
vt 0.9563 0.0265 0.0000
vt 0.9602 0.0265 0.0000
vt 0.9493 0.0250 0.0000
vt 0.9691 0.0080 0.0000
vt 0.9691 0.0265 0.0000
vt 0.0854 0.0239 0.0000
vt 0.9493 0.0161 0.0000
vt 0.9493 0.0265 0.0000
vt 0.8762 0.0265 0.0000
vt 0.9594 0.0265 0.0000
# 27 texture coords

o Box007
g Box007
usemtl Material__12
s 2
f 107/108/40 108/109/41 109/110/42 
f 109/110/42 110/111/42 107/108/40 
s 4
f 111/112/43 112/113/43 113/114/43 
f 113/114/43 114/115/43 111/112/43 
s 8
f 109/112/44 111/116/44 114/117/44 
f 114/117/44 110/115/44 109/112/44 
s 16
f 115/118/45 116/119/45 117/117/45 
f 117/117/45 118/115/45 115/118/45 
s 32
f 119/120/46 120/121/46 121/117/46 
f 121/117/46 122/115/46 119/120/46 
s 64
f 123/115/47 107/122/47 113/123/47 
f 113/123/47 124/117/47 123/115/47 
s 2
f 125/124/48 126/125/48 108/109/41 
f 108/109/41 107/108/40 125/124/48 
s 4
f 121/124/43 120/126/43 127/127/43 
f 127/127/43 116/108/43 121/124/43 
s 16
f 122/128/45 121/129/45 116/119/45 
f 116/119/45 115/118/45 122/128/45 
s 64
f 107/122/47 110/128/47 114/129/47 
f 114/129/47 113/123/47 107/122/47 
s 2
f 128/130/41 129/120/42 109/110/42 
f 109/110/42 108/109/41 128/130/41 
s 4
f 130/131/43 127/127/43 112/113/43 
f 112/113/43 111/112/43 130/131/43 
s 8
f 129/131/49 130/132/49 111/116/44 
f 111/116/44 109/112/44 129/131/49 
s 32
f 123/111/46 124/133/46 131/134/46 
f 131/134/46 132/110/46 123/111/46 
s 2
f 119/121/42 128/130/41 108/109/41 
f 108/109/41 132/134/42 119/121/42 
s 4
f 124/117/43 113/114/43 112/113/43 
f 112/113/43 131/116/43 124/117/43 
s 32
f 132/110/46 131/134/46 120/121/46 
f 120/121/46 119/120/46 132/110/46 
s 4
f 131/116/43 112/113/43 127/127/43 
f 127/127/43 120/126/43 131/116/43 
s 2
f 115/114/40 118/115/42 129/120/42 
f 129/120/42 128/130/41 115/114/40 
s 4
f 117/111/43 116/108/43 127/127/43 
f 127/127/43 130/131/43 117/111/43 
s 8
f 118/111/49 117/133/44 130/132/49 
f 130/132/49 129/131/49 118/111/49 
s 2
f 133/117/48 115/114/40 128/130/41 
f 128/130/41 134/121/48 133/117/48 
s off
f 123/124/46 132/134/46 126/125/46 
f 126/125/46 125/124/46 123/124/46 
f 132/134/45 108/109/45 126/125/45 
f 107/108/47 123/124/47 125/124/47 
f 122/117/45 115/114/45 133/117/45 
f 128/130/47 119/121/47 134/121/47 
f 119/121/46 122/117/46 133/117/46 
f 133/117/46 134/121/46 119/121/46 
# 52 faces

