# 3ds Max Wavefront OBJ Exporter v0.97b - (c)2007 guruware
# File Created: 25.02.2020 10:09:00

mtllib arrow.mtl

#
# object Cylinder001
#

v  -0.4196 -1.1571 -0.0367
v  -0.7885 -0.9433 -0.0689
v  -1.0624 -0.6157 -0.0929
v  -1.2081 -0.2138 -0.1057
v  -1.2081 0.2138 -0.1057
v  -1.0624 0.6157 -0.0929
v  -0.7885 0.9433 -0.0689
v  -0.4196 1.1571 -0.0367
v  -0.0000 1.2314 0.0000
v  0.4196 1.1571 0.0367
v  0.7885 0.9433 0.0690
v  1.0624 0.6157 0.0930
v  1.2081 0.2138 0.1057
v  1.2081 -0.2138 0.1057
v  1.0624 -0.6157 0.0930
v  0.7885 -0.9433 0.0690
v  0.4196 -1.1571 0.0367
v  -0.0000 -1.2314 0.0000
v  -0.3024 -1.1571 8.2882
v  -0.7219 -1.2314 8.2515
v  0.0666 -0.9433 8.3205
v  0.3405 -0.6157 8.3444
v  0.4862 -0.2138 8.3572
v  0.4862 0.2138 8.3572
v  0.3405 0.6157 8.3444
v  0.0666 0.9433 8.3205
v  -0.3024 1.1571 8.2882
v  -0.7219 1.2314 8.2515
v  -1.1415 1.1571 8.2148
v  -1.5104 0.9433 8.1825
v  -1.7843 0.6157 8.1586
v  -1.9300 0.2138 8.1458
v  -1.9300 -0.2138 8.1458
v  -1.7843 -0.6157 8.1586
v  -1.5104 -0.9433 8.1825
v  -1.1415 -1.1571 8.2148
v  0.0625 -2.1634 8.3202
v  -0.7219 -2.3022 8.2515
v  0.7523 -1.7636 8.3805
v  1.2643 -1.1511 8.4253
v  1.5367 -0.3998 8.4491
v  1.5367 0.3998 8.4491
v  1.2643 1.1511 8.4253
v  0.7523 1.7636 8.3805
v  0.0625 2.1634 8.3202
v  -0.7219 2.3022 8.2515
v  -1.5063 2.1634 8.1829
v  -2.1961 1.7636 8.1226
v  -2.7081 1.1511 8.0778
v  -2.9805 0.3998 8.0539
v  -2.9805 -0.3998 8.0539
v  -2.7081 -1.1511 8.0778
v  -2.1961 -1.7636 8.1226
v  -1.5063 -2.1634 8.1829
v  -1.4832 0.0000 16.9529
# 55 vertices

vn -0.1945 -0.6976 -0.6896
vn -0.4170 -0.5687 -0.7091
vn -0.5820 -0.3712 -0.7235
vn -0.6699 -0.1289 -0.7312
vn -0.6699 0.1289 -0.7312
vn -0.5820 0.3712 -0.7235
vn -0.4169 0.5687 -0.7091
vn -0.1945 0.6976 -0.6896
vn 0.0584 0.7423 -0.6675
vn 0.3113 0.6976 -0.6454
vn 0.5337 0.5687 -0.6259
vn 0.6988 0.3712 -0.6115
vn 0.7867 0.1289 -0.6038
vn 0.7866 -0.1289 -0.6038
vn 0.6988 -0.3712 -0.6115
vn 0.5337 -0.5687 -0.6259
vn 0.3113 -0.6975 -0.6454
vn 0.0584 -0.7423 -0.6675
vn 0.2912 -0.6233 -0.7258
vn 0.0652 -0.6633 -0.7455
vn 0.4900 -0.5081 -0.7083
vn 0.6374 -0.3316 -0.6955
vn 0.7159 -0.1152 -0.6886
vn 0.7160 0.1152 -0.6886
vn 0.6375 0.3317 -0.6954
vn 0.4900 0.5081 -0.7083
vn 0.2912 0.6233 -0.7257
vn 0.0652 0.6633 -0.7455
vn -0.1608 0.6233 -0.7653
vn -0.3595 0.5081 -0.7827
vn -0.5070 0.3317 -0.7956
vn -0.5855 0.1152 -0.8024
vn -0.5855 -0.1152 -0.8024
vn -0.5070 -0.3317 -0.7956
vn -0.3595 -0.5081 -0.7827
vn -0.1608 -0.6233 -0.7653
vn 0.3294 -0.7713 -0.5446
vn 0.0498 -0.8208 -0.5691
vn 0.5754 -0.6288 -0.5231
vn 0.7579 -0.4104 -0.5071
vn 0.8550 -0.1425 -0.4986
vn 0.8550 0.1425 -0.4986
vn 0.7579 0.4104 -0.5071
vn 0.5754 0.6288 -0.5231
vn 0.3294 0.7713 -0.5446
vn 0.0498 0.8208 -0.5691
vn -0.2299 0.7713 -0.5935
vn -0.4758 0.6288 -0.6150
vn -0.6583 0.4104 -0.6310
vn -0.7555 0.1425 -0.6395
vn -0.7555 -0.1425 -0.6395
vn -0.6583 -0.4104 -0.6310
vn -0.4758 -0.6288 -0.6150
vn -0.2299 -0.7713 -0.5935
vn -0.0872 -0.0000 0.9962
# 55 vertex normals

vt 0.3400 0.0000 -0.0000
vt 0.1953 0.0000 -0.3473
vt 0.0874 0.0000 -0.6527
vt 0.0292 0.0000 -0.8794
vt 0.0278 0.0000 -1.0000
vt 0.0833 0.0000 -1.0000
vt 0.1891 0.0000 -0.8794
vt 0.3325 0.0000 -0.6527
vt 0.4960 0.0000 -0.3473
vt 0.6600 0.0000 0.0000
vt 0.8047 0.0000 0.3473
vt 0.9126 0.0000 0.6527
vt 0.9708 0.0000 0.8794
vt 0.9722 0.0000 1.0000
vt 0.9167 0.0000 1.0000
vt 0.8611 0.0000 1.0000
vt 0.8056 0.0000 1.0000
vt 0.7500 0.0000 1.0000
vt 0.8056 0.5000 1.0000
vt 0.7500 0.5000 1.0000
vt 0.8611 0.5000 1.0000
vt 0.9167 0.5000 1.0000
vt 0.9722 0.5000 1.0000
vt -0.0278 0.0000 1.0000
vt 0.0278 0.0000 1.0000
vt 0.0278 0.5000 1.0000
vt -0.0278 0.5000 1.0000
vt 0.0833 0.0000 1.0000
vt 0.0833 0.5000 1.0000
vt 0.1389 0.0000 1.0000
vt 0.1389 0.5000 1.0000
vt 0.1944 0.0000 1.0000
vt 0.1944 0.5000 1.0000
vt 0.2500 0.0000 1.0000
vt 0.2500 0.5000 1.0000
vt 0.3056 0.0000 1.0000
vt 0.3056 0.5000 1.0000
vt 0.3611 0.0000 1.0000
vt 0.3611 0.5000 1.0000
vt 0.4167 0.0000 1.0000
vt 0.4167 0.5000 1.0000
vt 0.4722 0.0000 1.0000
vt 0.4722 0.5000 1.0000
vt 0.5278 0.0000 1.0000
vt 0.5278 0.5000 1.0000
vt 0.5833 0.0000 1.0000
vt 0.5833 0.5000 1.0000
vt 0.6389 0.0000 1.0000
vt 0.6389 0.5000 1.0000
vt 0.6944 0.0000 1.0000
vt 0.6944 0.5000 1.0000
vt 0.8056 0.7500 1.0000
vt 0.7500 0.7500 1.0000
vt 0.8611 0.7500 1.0000
vt 0.9167 0.7500 1.0000
vt 0.9722 0.7500 1.0000
vt 0.0278 0.7500 1.0000
vt -0.0278 0.7500 1.0000
vt 0.0833 0.7500 1.0000
vt 0.1389 0.7500 1.0000
vt 0.1944 0.7500 1.0000
vt 0.2500 0.7500 1.0000
vt 0.3056 0.7500 1.0000
vt 0.3611 0.7500 1.0000
vt 0.4167 0.7500 1.0000
vt 0.4722 0.7500 1.0000
vt 0.5278 0.7500 1.0000
vt 0.5833 0.7500 1.0000
vt 0.6389 0.7500 1.0000
vt 0.6944 0.7500 1.0000
vt 0.0292 1.0000 -0.8794
vt 0.5278 1.0000 1.0000
# 72 texture coords

o Cylinder001
g Cylinder001
usemtl 01___Default
s 1
f 1/1/1 2/2/2 3/3/3 4/4/4 5/5/5 6/6/6 7/7/7 8/8/8 9/9/9 10/10/10 11/11/11 12/12/12 13/13/13 14/14/14 15/15/15 16/16/16 17/17/17 18/18/18 
s 8
f 18/18/18 17/17/17 19/19/19 20/20/20 
f 17/17/17 16/16/16 21/21/21 19/19/19 
f 16/16/16 15/15/15 22/22/22 21/21/21 
f 15/15/15 14/14/14 23/23/23 22/22/22 
f 14/24/14 13/25/13 24/26/24 23/27/23 
f 13/25/13 12/28/12 25/29/25 24/26/24 
f 12/28/12 11/30/11 26/31/26 25/29/25 
f 11/30/11 10/32/10 27/33/27 26/31/26 
f 10/32/10 9/34/9 28/35/28 27/33/27 
f 9/34/9 8/36/8 29/37/29 28/35/28 
f 8/36/8 7/38/7 30/39/30 29/37/29 
f 7/38/7 6/40/6 31/41/31 30/39/30 
f 6/40/6 5/42/5 32/43/32 31/41/31 
f 5/42/5 4/44/4 33/45/33 32/43/32 
f 4/44/4 3/46/3 34/47/34 33/45/33 
f 3/46/3 2/48/2 35/49/35 34/47/34 
f 2/48/2 1/50/1 36/51/36 35/49/35 
f 1/50/1 18/18/18 20/20/20 36/51/36 
f 20/20/20 19/19/19 37/52/37 38/53/38 
f 19/19/19 21/21/21 39/54/39 37/52/37 
f 21/21/21 22/22/22 40/55/40 39/54/39 
f 22/22/22 23/23/23 41/56/41 40/55/40 
f 23/27/23 24/26/24 42/57/42 41/58/41 
f 24/26/24 25/29/25 43/59/43 42/57/42 
f 25/29/25 26/31/26 44/60/44 43/59/43 
f 26/31/26 27/33/27 45/61/45 44/60/44 
f 27/33/27 28/35/28 46/62/46 45/61/45 
f 28/35/28 29/37/29 47/63/47 46/62/46 
f 29/37/29 30/39/30 48/64/48 47/63/47 
f 30/39/30 31/41/31 49/65/49 48/64/48 
f 31/41/31 32/43/32 50/66/50 49/65/49 
f 32/43/32 33/45/33 51/67/51 50/66/50 
f 33/45/33 34/47/34 52/68/52 51/67/51 
f 34/47/34 35/49/35 53/69/53 52/68/52 
f 35/49/35 36/51/36 54/70/54 53/69/53 
f 36/51/36 20/20/20 38/53/38 54/70/54 
f 37/52/37 55/71/55 38/53/38 
f 39/54/39 55/71/55 37/52/37 
f 40/55/40 55/71/55 39/54/39 
f 41/56/41 55/71/55 40/55/40 
f 42/57/42 55/72/55 41/58/41 
f 43/59/43 55/72/55 42/57/42 
f 44/60/44 55/72/55 43/59/43 
f 45/61/45 55/72/55 44/60/44 
f 46/62/46 55/72/55 45/61/45 
f 47/63/47 55/72/55 46/62/46 
f 48/64/48 55/72/55 47/63/47 
f 49/65/49 55/72/55 48/64/48 
f 50/66/50 55/72/55 49/65/49 
f 51/67/51 55/72/55 50/66/50 
f 52/68/52 55/72/55 51/67/51 
f 53/69/53 55/71/55 52/68/52 
f 54/70/54 55/71/55 53/69/53 
f 38/53/38 55/71/55 54/70/54 
# 37 polygons - 18 triangles

